<svg xmlns="http://www.w3.org/2000/svg" width="416" height="252" viewBox="0 0 416 252">
    
    
    <g transform="translate(100,0) scale(0.72)">
      <!-- rising sun arc -->
      <path d="M 58 91 A 92 92 0 0 1 242 91" fill="none" stroke="#D6A15E" stroke-width="7" stroke-linecap="round"/>
      <!-- distant peak -->
      <path d="M 67 139 L 116 86 L 141 112 L 165 75 L 235 139 Z" fill="#FFFFFF"/>
      <path d="M 116 86 L 141 112 L 126 105 Z" fill="#D6A15E"/>
      <path d="M 165 75 L 190 112 L 173 101 Z" fill="#D6A15E"/>
      <!-- foreground mountain -->
      <path d="M 28 158 L 105 87 L 135 117 L 164 68 L 273 158 Z" fill="#FFFFFF"/>
      <path d="M 105 87 L 135 117 L 119 111 Z" fill="#D6A15E"/>
      <path d="M 164 68 L 196 121 L 179 105 Z" fill="#D6A15E"/>
      <!-- snow / path edge -->
      <path d="M 105 87 L 85 128 L 119 111 L 135 117 Z" fill="#F8F5EF"/>
      <path d="M 164 68 L 146 111 L 179 105 Z" fill="#F8F5EF"/>
      <!-- winding trail, tapering into summit -->
      <path d="M 164 72 C 154 89 149 101 159 111 C 172 124 194 124 190 136 C 187 147 160 150 144 158"
            fill="none" stroke="#F8F5EF" stroke-width="10" stroke-linecap="round" stroke-linejoin="round"/>
      <path d="M 164 72 C 154 89 149 101 159 111 C 172 124 194 124 190 136 C 187 147 160 150 144 158"
            fill="none" stroke="#D6A15E" stroke-width="2.5" stroke-linecap="round" stroke-linejoin="round"/>
      <!-- flag at summit -->
      <path d="M 164 68 L 164 24" stroke="#FFFFFF" stroke-width="5" stroke-linecap="round"/>
      <path d="M 166 25 L 207 25 L 194 38 L 207 50 L 166 50 Z" fill="#D92D20"/>
    </g>
    <g font-family="DejaVu Sans, Arial, sans-serif" font-weight="800" text-anchor="middle">
      <text x="208" y="196" font-size="43" fill="#FFFFFF" letter-spacing="-1">MISSÃO</text>
      <text x="208" y="231" font-size="23" fill="#D6A15E" letter-spacing="7">MENTORIA</text>
    </g>

    </svg>